<!DOCTYPE svg PUBLIC "-//W3C//DTD SVG 1.1//EN" "http://www.w3.org/Graphics/SVG/1.1/DTD/svg11.dtd">
<!-- Uploaded to: SVG Repo, www.svgrepo.com, Transformed by: SVG Repo Mixer Tools -->
<svg height="256px" width="256px" version="1.1" id="Layer_1" xmlns="http://www.w3.org/2000/svg" xmlns:xlink="http://www.w3.org/1999/xlink" viewBox="0 0 503.467 503.467" xml:space="preserve" fill="#000000">
<g id="SVGRepo_bgCarrier" stroke-width="0"/>
<g id="SVGRepo_tracerCarrier" stroke-linecap="round" stroke-linejoin="round"/>
<g id="SVGRepo_iconCarrier"> <g transform="translate(1 1)"> <polygon style="fill:#ffa55c;" points="156.867,295.96 156.867,429.933 175.64,437.613 199.533,423.96 205.507,447.853 344.6,498.2 344.6,105.667 250.733,71.533 242.2,71.533 242.2,68.12 156.867,37.4 "/> <polygon style="fill:#fecd95;" points="242.2,3.267 242.2,68.12 250.733,71.533 344.6,71.533 327.533,37.4 344.6,3.267 "/> <g> <path style="fill:#ffa55c;" d="M156.867,295.96v133.973L37.4,463.213c-22.187,5.973-34.133-14.507-34.133-33.28V259.267V191 l17.067-17.067L3.267,156.867v-46.933c0-18.773,15.36-32.427,34.133-38.4L156.867,37.4V295.96z"/> <path style="fill:#ffa55c;" d="M498.2,395.8v34.133c0,18.773-15.36,28.16-34.133,34.133L344.6,498.2V105.667l119.467-33.28 c24.747-5.973,34.133,14.507,34.133,33.28v256l-17.067,17.067L498.2,395.8z"/> </g> </g> <path style="fill:#51565F;" d="M345.6,503.467c-0.853,0-0.853,0-1.707,0L204.8,453.12c-1.707-0.853-2.56-1.707-2.56-2.56 l-5.12-17.92l-18.773,10.24c-0.853,0.853-2.56,0.853-3.413,0l-19.627-7.68c-1.707-0.853-2.56-2.56-2.56-4.267V304.64 c-13.653,6.827-29.013,11.093-46.933,11.093c-41.813,0-81.92-31.573-98.133-46.08v161.28c0,11.093,4.267,20.48,11.093,25.6 c5.12,4.267,11.093,5.12,17.92,3.413l85.333-23.04c2.56-0.853,4.267,0.853,5.12,2.56c0.853,1.707-0.853,4.267-2.56,5.12 l-85.333,23.04c-9.387,2.56-18.773,0.853-25.6-4.267C5.12,456.533,0,443.733,0,430.933V192c0-0.853,0.853-2.56,0.853-3.413 l13.653-13.653L0.854,161.28C0,160.427,0,159.573,0,157.867v-46.933C0,92.16,14.507,75.947,36.693,68.267L156.16,34.133 c0.853,0,1.707,0,2.56,0l51.2,18.773c2.56,0.853,3.413,3.413,2.56,5.12c-0.853,2.56-3.413,3.413-5.12,2.56l-49.493-17.92 L40.107,76.8c-19.627,5.973-30.72,18.773-30.72,34.133v45.227L25.6,172.373c1.707,1.707,1.707,4.267,0,5.973L9.387,194.56v64.853 c7.68,7.68,53.76,48.64,98.133,48.64c17.92,0,33.28-5.12,46.933-12.8V73.387c0-2.56,1.707-4.267,4.267-4.267 c2.56,0,4.267,1.707,4.267,4.267v216.747c55.467-40.107,76.8-130.56,76.8-132.267c0.853-2.56,2.56-3.413,5.12-3.413 c2.56,0.853,3.413,2.56,3.413,5.12c-0.853,5.12-23.04,101.547-85.333,140.8v128.853l14.507,5.973l21.333-11.947 c0.853-0.853,2.56-0.853,3.413,0c0.853,0.853,1.707,1.707,2.56,2.56l5.973,21.333l135.68,49.493l117.76-34.133 c21.333-6.827,30.72-16.213,30.72-29.867v-32.427L478.72,384c-1.707-1.707-1.707-4.267,0-5.973l16.213-16.213V106.667 c0-11.947-3.413-21.333-9.387-25.6c-5.12-3.413-11.093-5.12-19.627-3.413L349.866,110.08v354.987c0,2.56-1.707,4.267-4.267,4.267 s-4.267-1.707-4.267-4.267v-358.4c0-1.707,1.707-3.413,3.413-4.267l119.467-33.28c11.093-2.56,19.627-0.853,26.453,4.267 c7.68,6.827,12.8,17.92,12.8,32.427v256c0,0.853-0.853,2.56-0.853,3.413L488.96,378.88l13.653,13.653 c0.853,0.853,0.853,1.707,0.853,3.413v34.133c0,23.893-21.333,33.28-37.547,38.4l-119.467,34.133 C346.453,503.467,345.6,503.467,345.6,503.467z M413.867,366.933c-0.853,0-2.56,0-3.413-0.853L396.8,352.427l-13.653,13.653 c-1.707,1.707-4.267,1.707-5.973,0c-1.707-1.707-1.707-4.267,0-5.973l17.067-17.067c1.707-1.707,4.267-1.707,5.973,0l17.067,17.067 c1.707,1.707,1.707,4.267,0,5.973C416.427,366.933,414.72,366.933,413.867,366.933z M260.267,366.933c-0.853,0-2.56,0-3.413-0.853 l-30.72-30.72l-30.72,30.72c-1.707,1.707-4.267,1.707-5.973,0c-1.707-1.707-1.707-4.267,0-5.973l34.133-34.133 c1.707-1.707,4.267-1.707,5.973,0l13.653,13.653l30.72-30.72c1.707-1.707,4.267-1.707,5.973,0l34.133,34.133 c1.707,1.707,1.707,4.267,0,5.973c-1.707,1.707-4.267,1.707-5.973,0l-30.72-30.72l-28.16,28.16l13.653,13.653 c1.707,1.707,1.707,4.267,0,5.973C262.827,366.933,261.12,366.933,260.267,366.933z M430.933,264.533c-0.853,0-2.56,0-3.413-0.853 l-13.653-13.653l-13.653,13.653c-1.707,1.707-4.267,1.707-5.973,0s-1.707-4.267,0-5.973l17.067-17.067 c1.707-1.707,4.267-1.707,5.973,0l17.067,17.067c1.707,1.707,1.707,4.267,0,5.973C433.493,264.533,431.787,264.533,430.933,264.533z M465.067,230.4c-0.853,0-2.56,0-3.413-0.853L448,215.893l-13.653,13.653c-1.707,1.707-4.267,1.707-5.973,0s-1.707-4.267,0-5.973 l17.067-17.067c1.707-1.707,4.267-1.707,5.973,0l17.067,17.067c1.707,1.707,1.707,4.267,0,5.973 C467.627,230.4,465.92,230.4,465.067,230.4z M243.2,128c-2.56,0-4.267-1.707-4.267-4.267V4.267c0-2.56,1.707-4.267,4.267-4.267 h102.4c1.707,0,2.56,0.853,3.413,1.707c0.853,0.853,0.853,2.56,0,4.267L332.8,38.4l16.213,32.427c0.853,1.707,0.853,2.56,0,4.267 c-0.853,0.853-2.56,1.707-3.413,1.707h-68.267c-2.56,0-4.267-1.707-4.267-4.267c0-2.56,1.707-4.267,4.267-4.267h61.44l-13.653-28.16 c-0.853-0.853-0.853-2.56,0-3.413l13.653-28.16h-91.307v115.2C247.467,126.293,245.76,128,243.2,128z"/> </g>
</svg>