<?xml version="1.0" encoding="UTF-8" standalone="no"?>
<!DOCTYPE svg PUBLIC "-//W3C//DTD SVG 1.1//EN" "http://www.w3.org/Graphics/SVG/1.1/DTD/svg11.dtd">
<svg xmlns="http://www.w3.org/2000/svg" version="1.1" viewBox="0.00 0.00 1435.00 1461.00">
<path fill="#000000" d="
  M 1002.28 1307.34
  A 0.27 0.26 78.6 0 0 1002.66 1307.60
  C 1158.09 1229.65 1273.44 1094.84 1328.04 929.70
  A 1.66 1.65 -58.4 0 0 1327.64 928.01
  Q 1304.65 905.02 1281.53 881.90
  Q 1272.65 873.03 1270.31 868.49
  C 1265.50 859.13 1266.06 847.98 1271.54 838.93
  C 1282.05 821.54 1305.51 819.45 1319.81 833.69
  Q 1332.71 846.55 1345.19 859.09
  A 0.75 0.75 0.0 0 0 1346.46 858.70
  C 1369.68 740.81 1360.76 619.30 1317.70 507.39
  C 1256.94 349.51 1137.14 222.43 984.23 150.54
  Q 975.02 146.21 971.59 143.19
  C 945.16 119.96 972.83 77.78 1005.23 92.72
  Q 1097.65 135.36 1174.77 201.88
  A 0.53 0.52 20.2 0 0 1175.64 201.48
  C 1175.53 192.54 1174.61 181.15 1176.48 173.57
  C 1183.94 143.36 1227.48 142.92 1235.42 173.17
  Q 1236.75 178.24 1236.75 193.06
  Q 1236.75 225.29 1236.75 257.52
  C 1236.75 259.18 1236.01 261.58 1237.51 263.23
  Q 1308.26 341.02 1353.48 435.82
  A 0.47 0.47 0.0 0 0 1354.36 435.76
  C 1357.29 426.47 1360.46 414.11 1365.90 407.06
  C 1383.59 384.16 1421.32 397.53 1420.32 426.68
  Q 1420.14 432.02 1416.31 443.50
  Q 1402.66 484.37 1389.00 525.21
  A 2.49 2.40 46.4 0 0 1388.99 526.69
  C 1438.73 687.60 1428.61 860.76 1360.95 1015.07
  A 0.75 0.75 0.0 0 0 1361.90 1016.08
  C 1375.04 1011.30 1388.30 1004.39 1402.46 1010.76
  C 1423.93 1020.43 1427.14 1048.91 1408.26 1063.16
  Q 1404.81 1065.77 1398.09 1068.14
  Q 1359.17 1081.89 1320.17 1095.34
  Q 1319.69 1095.51 1319.40 1095.92
  Q 1319.03 1096.43 1318.72 1096.93
  Q 1270.35 1175.89 1203.71 1239.92
  A 0.37 0.37 0.0 0 0 1203.85 1240.54
  Q 1223.85 1247.11 1243.75 1253.72
  C 1285.82 1267.69 1265.57 1325.52 1225.74 1312.27
  Q 1188.31 1299.82 1150.73 1287.28
  Q 1149.61 1286.91 1148.67 1287.64
  C 1028.15 1381.66 880.19 1434.12 727.25 1436.50
  C 722.09 1436.58 717.45 1437.21 712.58 1436.93
  Q 708.57 1436.69 701.50 1436.52
  Q 507.75 1431.83 343.23 1329.55
  C 336.71 1325.50 328.56 1319.98 321.20 1315.23
  Q 320.77 1314.95 320.29 1315.11
  Q 281.99 1328.00 243.68 1340.73
  Q 231.63 1344.73 226.49 1344.84
  Q 216.89 1345.03 208.92 1339.34
  C 191.26 1326.72 191.40 1300.81 209.51 1288.79
  Q 212.97 1286.50 221.03 1283.77
  Q 240.80 1277.08 261.10 1270.50
  A 0.63 0.63 0.0 0 0 261.31 1269.42
  Q 203.71 1220.52 157.64 1160.64
  Q 157.32 1160.21 156.80 1160.08
  Q 98.84 1145.55 40.99 1131.01
  Q 30.26 1128.31 26.02 1125.69
  C 0.35 1109.85 11.49 1070.49 41.38 1069.57
  Q 46.52 1069.41 55.92 1071.75
  Q 80.81 1077.96 105.43 1084.16
  A 0.52 0.52 0.0 0 0 106.01 1083.40
  C -7.86 885.50 -17.85 646.79 75.26 439.20
  A 2.24 2.21 48.4 0 0 75.34 437.62
  Q 60.09 391.89 44.78 345.74
  C 43.37 341.50 42.22 337.10 42.57 332.65
  C 44.49 307.96 71.58 295.07 91.72 309.80
  C 99.44 315.44 101.56 322.71 105.19 333.50
  C 106.15 336.34 114.23 361.50 114.99 361.76
  A 0.49 0.49 0.0 0 0 115.56 361.55
  Q 183.39 250.72 285.92 170.96
  C 288.55 168.92 287.50 167.42 287.50 164.75
  Q 287.52 128.01 287.66 91.26
  Q 287.68 84.50 288.97 80.41
  C 298.00 51.59 338.83 51.45 347.46 80.80
  Q 348.77 85.26 348.76 93.34
  Q 348.73 109.78 348.76 126.27
  A 0.65 0.64 -15.6 0 0 349.74 126.82
  Q 412.23 88.55 481.58 64.32
  Q 494.32 59.87 498.12 59.33
  C 522.06 55.93 539.33 80.06 530.24 101.93
  C 526.03 112.05 518.07 116.33 507.12 120.09
  Q 351.38 173.56 242.04 293.80
  C 165.00 378.52 110.94 483.31 87.39 596.52
  Q 54.43 755.01 98.39 911.49
  A 0.64 0.63 -33.6 0 0 99.50 911.71
  C 108.45 900.29 115.00 887.63 130.95 885.70
  C 153.15 883.02 171.48 904.55 163.75 925.84
  Q 161.99 930.70 153.29 942.23
  Q 138.64 961.69 124.14 981.03
  A 1.22 1.20 52.7 0 0 123.99 982.23
  C 184.24 1123.78 292.23 1238.40 429.51 1307.54
  A 0.40 0.40 0.0 0 0 429.98 1306.90
  C 348.30 1223.49 294.20 1115.64 262.87 1004.17
  Q 236.20 909.29 229.33 810.94
  C 229.27 810.06 228.73 808.61 228.10 807.98
  Q 201.87 781.74 175.63 755.52
  Q 170.57 750.45 168.52 746.58
  C 153.58 718.31 186.68 689.30 212.64 707.07
  C 217.09 710.11 221.83 715.54 226.33 719.75
  A 0.36 0.35 -68.3 0 0 226.92 719.49
  C 228.89 581.98 260.13 442.88 321.69 320.51
  C 331.33 301.35 357.62 297.85 371.82 313.94
  Q 382.55 326.10 378.28 343.00
  C 376.97 348.15 371.42 357.65 369.01 362.76
  C 275.95 559.90 264.15 791.66 325.80 1000.37
  Q 326.30 1002.09 327.29 1000.59
  Q 339.20 982.51 351.77 963.95
  Q 357.13 956.04 360.90 953.08
  C 376.03 941.24 397.95 946.23 406.68 963.04
  C 411.55 972.41 411.58 984.39 405.72 993.20
  Q 379.15 1033.14 352.72 1072.78
  A 1.73 1.72 50.7 0 0 352.56 1074.41
  C 397.39 1182.91 467.84 1283.76 574.23 1339.64
  A 0.45 0.45 0.0 0 0 574.82 1339.00
  C 539.46 1283.78 514.61 1220.87 496.65 1159.32
  C 470.18 1068.59 454.58 974.44 446.86 880.32
  Q 441.18 810.93 440.96 753.50
  C 440.95 750.61 441.49 749.45 438.79 747.66
  Q 402.02 723.25 365.36 698.69
  C 358.12 693.84 352.87 689.02 350.32 681.41
  C 340.81 653.11 371.76 629.41 396.70 646.05
  Q 418.97 660.91 441.33 675.81
  A 0.38 0.38 0.0 0 0 441.92 675.50
  Q 444.69 595.82 456.25 517.00
  C 470.95 416.82 497.80 317.30 540.72 226.03
  C 561.44 181.98 587.93 138.22 620.16 100.40
  C 643.32 73.22 670.59 48.88 702.01 32.02
  C 733.14 15.33 763.07 56.29 737.90 80.56
  Q 735.20 83.17 726.37 88.46
  Q 706.42 100.40 689.69 116.70
  C 651.15 154.23 621.40 200.46 597.95 248.95
  C 575.95 294.46 558.77 341.87 545.46 390.52
  A 0.44 0.43 80.7 0 0 546.12 391.00
  Q 561.77 380.38 577.43 369.93
  Q 586.77 363.68 597.62 365.17
  C 625.22 368.94 635.08 404.97 611.47 420.73
  Q 568.45 449.47 525.49 478.09
  A 1.97 1.95 78.5 0 0 524.65 479.37
  C 503.69 592.01 498.62 705.52 504.13 819.80
  Q 509.42 929.52 530.19 1037.41
  C 546.27 1120.92 570.30 1205.93 611.26 1280.96
  C 628.74 1312.98 652.59 1347.52 684.82 1366.27
  A 0.62 0.62 0.0 0 0 685.75 1365.73
  Q 685.75 1178.93 685.75 991.93
  C 685.75 990.90 685.43 990.40 684.77 989.73
  Q 643.92 948.58 602.95 907.55
  C 577.08 881.64 608.74 840.79 639.94 859.30
  Q 642.95 861.08 647.37 865.50
  Q 665.56 883.69 684.09 902.19
  Q 685.74 903.84 685.74 901.51
  Q 685.77 853.62 685.74 804.53
  Q 685.74 804.45 685.27 796.64
  C 685.05 793.00 685.74 789.15 685.74 786.03
  Q 685.75 515.87 685.75 245.70
  Q 685.75 237.28 687.12 232.94
  C 696.15 204.42 736.75 205.07 745.37 233.48
  Q 746.75 238.02 746.75 246.79
  Q 746.75 482.99 746.75 719.01
  A 0.43 0.43 0.0 0 0 747.48 719.31
  Q 765.75 700.90 784.10 682.63
  Q 789.63 677.13 793.72 674.92
  C 821.48 659.97 851.12 691.85 834.15 718.13
  Q 832.33 720.94 820.86 732.46
  Q 784.89 768.56 748.79 804.55
  C 747.49 805.84 746.76 806.06 746.76 808.14
  C 746.67 994.00 746.71 1179.86 746.78 1365.72
  A 0.59 0.58 -15.2 0 0 747.66 1366.22
  C 784.00 1344.90 809.77 1304.29 828.77 1266.54
  C 857.42 1209.60 877.07 1148.61 891.63 1086.67
  C 920.22 965.04 931.84 838.78 930.41 714.00
  C 929.21 610.08 922.80 507.01 901.23 405.10
  Q 899.64 397.59 900.04 393.28
  C 902.73 363.70 942.83 354.38 957.31 381.10
  C 960.39 386.77 961.68 394.84 963.08 401.68
  C 984.03 503.65 990.73 607.80 991.71 711.69
  Q 992.56 801.37 984.26 890.67
  Q 984.10 892.43 984.31 893.98
  A 0.35 0.35 0.0 0 0 984.85 894.23
  Q 1007.02 879.52 1029.08 864.79
  Q 1039.49 857.84 1044.05 856.33
  C 1072.40 846.93 1096.13 881.06 1077.28 904.47
  Q 1074.47 907.96 1068.04 912.27
  Q 1021.65 943.38 975.09 974.23
  Q 974.68 974.50 974.61 974.99
  C 960.78 1071.88 938.64 1169.15 899.88 1259.34
  Q 882.00 1300.94 857.48 1339.10
  A 0.42 0.42 0.0 0 0 858.03 1339.70
  C 955.27 1288.35 1024.17 1198.65 1069.08 1100.16
  C 1130.48 965.51 1152.80 814.86 1142.22 667.49
  Q 1142.08 665.61 1140.88 664.64
  Q 1102.88 634.11 1064.83 603.67
  Q 1056.37 596.91 1053.70 587.23
  C 1045.89 558.91 1079.28 537.13 1101.94 555.05
  Q 1116.24 566.37 1130.44 577.81
  Q 1130.90 578.18 1131.45 578.26
  A 0.29 0.28 -1.4 0 0 1131.77 577.93
  C 1117.68 498.43 1093.68 422.56 1057.38 350.47
  Q 1053.59 342.94 1052.80 338.58
  C 1048.33 313.72 1075.38 294.80 1097.57 306.58
  Q 1104.86 310.45 1108.96 317.29
  Q 1113.03 324.08 1122.42 344.07
  C 1194.54 497.53 1216.76 667.43 1201.11 835.21
  Q 1190.79 945.77 1154.81 1050.89
  C 1122.54 1145.14 1072.80 1235.12 1002.62 1306.62
  Q 1002.32 1306.94 1002.28 1307.34
  Z"
/>
</svg>
